Format : MPEG-PS
File size : 1.66 GiB
Duration : 1h 23mn
Overall bit rate : 2 845 Kbps

Video
ID : 224 (0xE0)
Format : MPEG Video
Format version : Version 2
Format profile : Main@Main
Format settings, BVOP : Yes
Format settings, Matrix : Default
Format settings, GOP : M=3, N=15
Duration : 1h 23mn
Bit rate mode : Variable
Bit rate : 2 596 Kbps
Nominal bit rate : 9 008 Kbps
Width : 720 pixels
Height : 480 pixels
Display aspect ratio : 16:9
Frame rate : 29.970 fps
Standard : NTSC
Color space : YUV
Chroma subsampling : 4:2:0
Bit depth : 8 bits
Scan type : Progressive
Compression mode : Lossy
Bits/(Pixel*Frame) : 0.251
Stream size : 1.52 GiB (91%)

Audio
ID : 189 (0xBD)-128 (0x80)
Format : AC-3
Format/Info : Audio Coding 3
Mode extension : CM (complete main)
Muxing mode : DVD-Video
Duration : 1h 23mn
Bit rate mode : Constant
Bit rate : 192 Kbps
Channel(s) : 2 channels
Channel positions : Front: L R
Sampling rate : 48.0 KHz
Bit depth : 16 bits
Compression mode : Lossy
Stream size : 115 MiB (7%)

 
http://www.imdb.com/title/tt1683043/









Users: 7.2/10 (40 votes) write review | Critics: 5 reviews

As the home planet of the Green Lantern Corps faces a battle with an ancient enemy, Hal Jordan prepares new recruit Arisia for the coming conflict by relating stories of the first Green Lantern and several of Hal's comrades.
Directors:
Chris Berkeley, Lauren Montgomery, and 1 more credit »
Writers:
Alan Burnett, Geoff Johns, and 6 more credits »
Stars:
Nathan Fillion, Jason Isaacs and Elisabeth Moss














Source Used ......... Green Lantern Emrald Knights 2011 DVDRIP MKV-HMV.............. Thanks


Just a straightforward dvd-r ready to mount or burn .................


Greetz to IMAGiNE,Flawl3ss,DiLLoN,BDK,NOiR,TOXiC,THC,Ez,Rx,Boobyblue,TaRiQ786,LKRG,EP1C